<svg width="20" height="20" viewBox="0 0 20 20" fill="none" xmlns="http://www.w3.org/2000/svg">
<path d="M8.81185 0.51699C9.46475 -0.171955 10.5357 -0.172423 11.189 0.516146L19.3864 9.15651C19.7607 9.4734 20 9.95549 20 10.4956V18.2719C19.9999 19.2262 19.2537 20 18.3333 20H14.1667C13.2463 20 12.5001 19.2262 12.5 18.2719V15.6798C12.5 14.964 11.9404 14.3838 11.25 14.3838H8.75C8.05964 14.3838 7.5 14.964 7.5 15.6798V18.2719C7.49987 19.2262 6.75373 20 5.83333 20H1.66667C0.746273 20 0.000130867 19.2262 0 18.2719V10.4956C0 9.93729 0.165468 9.63129 0.652669 9.12613L8.81185 0.51699Z" fill="#292929"/>
</svg>
